<svg width="105" height="51" viewBox="0 0 105 51" fill="none" xmlns="http://www.w3.org/2000/svg">
<path d="M14.1429 5.125V0.424999H0.692871V0.774999H2.24287V19.65H0.692871V20H7.04287V19.65H5.44287V10.4H8.96787C9.46787 10.6 9.76787 11.1 9.94287 11.55C10.1929 12.2 10.2679 12.85 10.2679 12.85H10.4179V7.575H10.2679C10.2679 7.575 10.1929 8.25 9.94287 8.9C9.76787 9.375 9.46787 9.85 8.96787 10.05H5.44287V0.774999H11.4929C13.6429 1.65 14.0179 5.125 14.0179 5.125H14.1429ZM30.6103 17.45H30.3353C30.3103 17.45 30.6103 19.45 28.9103 19.45C28.0103 19.45 28.2603 16.8 28.2603 16.025C28.2603 13.675 28.3353 12.125 28.3353 10.65C28.3353 8.1 26.9103 5.65 21.8103 5.65C20.5103 5.65 16.8103 5.775 16.8103 8.875C16.8103 9.975 17.5103 10.975 18.4853 10.975C19.2603 10.975 20.0353 10.2 20.0353 9.425C20.0353 8.95 19.7603 8.5 19.3603 8.2C18.7353 7.775 18.4603 7.425 18.4603 7.15C18.4603 6.425 20.2603 5.9 21.4353 5.9C24.4103 5.9 24.7853 7.125 24.8353 9.325C24.8353 10.125 24.8103 11.05 24.8103 12.1V12.25C24.8103 12.25 18.6853 12.1 16.6603 14.25C15.8603 14.925 15.6853 18.125 17.0353 19.2C19.5103 21.175 24.2853 20.15 24.8103 16.55C24.8103 18.95 24.9103 20.2 27.8853 20.2C29.5853 20.2 30.6103 19.375 30.6103 17.45ZM24.5603 16.35C23.3853 20.25 20.9353 19.65 20.8853 19.575C19.3603 19 20.0603 14.875 20.0603 14.725C20.0603 12.825 24.7603 12.525 24.7603 12.525C24.7603 14.425 24.6103 16.35 24.5603 16.35ZM32.6876 15.5H32.5626V20.025C33.2376 18.35 33.1126 18.65 34.6126 19.35C34.6126 19.35 39.6876 21.775 42.0876 17.275C42.1876 17.1 42.4126 16.625 42.3876 15.9C42.4126 13.55 40.2626 12.025 37.9126 11.375C35.7626 10.525 31.4376 8.35 35.2126 6.4C36.7876 5.45 40.1626 5.8 41.6376 9.175C41.7876 9.775 41.8626 10.325 41.8626 10.325H41.9876V5.8C41.3126 7.475 41.4376 7.175 39.9376 6.475C39.9376 6.475 34.8626 4.05 32.4626 8.55C32.3626 8.725 32.1376 9.2 32.1626 9.925C32.2376 12.375 34.1126 13.8 36.6126 14.475C38.6876 15.275 43.1626 17.425 39.3376 19.425C37.7626 20.375 34.3876 20.025 32.9126 16.65C32.7626 16.05 32.6876 15.5 32.6876 15.5ZM61.0573 20V19.65H59.6323V10.275C59.6073 7.775 57.3073 5.9 54.8573 5.9C52.7823 5.9 50.8073 7.225 50.0073 9.15V0.774999H51.3573V0.424999H45.0073V0.774999H46.8073V19.65H44.8823V20H51.5573V19.65H50.0073V9.975C50.5573 7.8 52.5823 6.175 54.7573 6.125C56.0323 6.125 56.4073 8.3 56.4073 8.3V19.65H54.7073V20H61.0573ZM66.8341 3.7C67.6591 3.7 68.4591 2.9 68.4591 2.05C68.4591 1.225 67.6591 0.424999 66.8341 0.424999C65.9841 0.424999 65.1841 1.225 65.1841 2.05C65.1841 2.9 65.9841 3.7 66.8341 3.7ZM69.9841 20V19.65H68.4091V6.175H69.9841V5.825H63.5591V6.175H65.2091V19.65H63.5591V20H69.9841ZM86.1946 12.95C86.1946 9.125 83.1946 5.825 79.2196 5.825C75.3946 5.825 72.2446 8.975 72.2446 12.95C72.2446 16.825 75.3446 20.05 79.2196 20.05C83.1446 20.05 86.1946 16.875 86.1946 12.95ZM79.2196 19.9C77.2196 19.9 76.2446 15.875 76.2446 12.95C76.2446 10.125 77.1946 5.975 79.2196 5.975C81.1946 5.975 82.1946 10.175 82.1946 12.95C82.1946 15.625 81.2446 19.9 79.2196 19.9ZM104.062 20V19.65H102.662V10.275C102.662 7.775 100.537 5.9 98.062 5.9C96.012 5.9 94.112 7.225 93.312 9.15V5.825H88.437V6.175H90.112V19.65H88.437V20H94.712V19.65H93.312V9.975C93.887 7.8 95.812 6.2 97.962 6.15C99.412 6.275 99.462 8.325 99.462 8.325V19.65H97.712V20H104.062ZM24.0938 45.5H23.9688V50.025C24.6438 48.35 24.5188 48.65 26.0188 49.35C26.0188 49.35 31.0938 51.775 33.4938 47.275C33.5938 47.1 33.8188 46.625 33.7938 45.9C33.8188 43.55 31.6688 42.025 29.3188 41.375C27.1688 40.525 22.8438 38.35 26.6188 36.4C28.1938 35.45 31.5688 35.8 33.0438 39.175C33.1938 39.775 33.2688 40.325 33.2688 40.325H33.3938V35.8C32.7188 37.475 32.8438 37.175 31.3438 36.475C31.3438 36.475 26.2688 34.05 23.8688 38.55C23.7688 38.725 23.5438 39.2 23.5688 39.925C23.6438 42.375 25.5188 43.8 28.0188 44.475C30.0938 45.275 34.5688 47.425 30.7438 49.425C29.1688 50.375 25.7938 50.025 24.3188 46.65C24.1688 46.05 24.0938 45.5 24.0938 45.5ZM46.5386 46.5L46.2386 46.475C46.2386 46.475 46.1386 47.25 45.7136 48.05C45.2136 49.05 44.4386 49.6 43.4886 49.65C43.4886 49.65 42.2886 49.725 42.2886 47.625V36.675H46.3886V36.325H42.2386V31.375C42.2386 31.375 41.5886 34.175 39.0636 34.925V36.325H36.2886V36.675H39.0636V46.15C39.0636 46.15 38.2136 50.525 43.3386 50C46.0886 49.85 46.5386 46.525 46.5386 46.5ZM62.7327 42.95C62.7327 39.125 59.7327 35.825 55.7577 35.825C51.9327 35.825 48.7827 38.975 48.7827 42.95C48.7827 46.825 51.8827 50.05 55.7577 50.05C59.6827 50.05 62.7327 46.875 62.7327 42.95ZM55.7577 49.9C53.7577 49.9 52.7827 45.875 52.7827 42.95C52.7827 40.125 53.7327 35.975 55.7577 35.975C57.7327 35.975 58.7327 40.175 58.7327 42.95C58.7327 45.625 57.7827 49.9 55.7577 49.9ZM69.8751 39.25V35.825H64.9751V36.175H66.6751V49.65H64.9751V50H71.3501V49.65H69.8751V40.175L70.1251 39.35C70.6001 37.625 71.7251 36.775 71.7751 36.7C73.1001 35.7 74.3251 36.05 74.3251 36.05C74.7751 36.175 74.8501 36.625 74.8501 36.625C74.8501 37.65 73.4001 37.3 73.4001 38.675C73.4001 39.45 74.2001 40.25 74.9751 40.25C75.7501 40.25 76.5501 39.45 76.5501 38.675C76.5501 36.225 74.9251 35.925 74.9251 35.925C72.2751 35.275 70.6501 36.975 69.8751 39.25ZM92.037 46.175H91.712C90.587 48.325 88.362 49.775 85.812 49.775L85.062 49.725C83.662 48.9 82.762 46.3 82.812 42H92.687C92.262 38.525 89.337 35.85 85.812 35.85C81.937 35.85 78.812 39.025 78.812 42.95C78.812 46.875 81.937 50.05 85.812 50.05C88.512 50.05 90.862 48.475 92.037 46.175ZM88.787 41.725H82.837C83.037 39 83.912 36.85 85.062 36.175C85.287 36.15 85.537 36.125 85.812 36.125C86.062 36.125 86.312 36.15 86.587 36.175C87.737 36.85 88.612 38.975 88.787 41.725Z" fill="#4D4B4B"/>
</svg>
