<svg width="75" height="38" viewBox="0 0 75 38" fill="none" xmlns="http://www.w3.org/2000/svg">
<path d="M9.92287 4.29V0.905999H0.238867V1.158H1.35487V14.748H0.238867V15H4.81087V14.748H3.65887V8.088H6.19687C6.55687 8.232 6.77287 8.592 6.89887 8.916C7.07887 9.384 7.13287 9.852 7.13287 9.852H7.24087V6.054H7.13287C7.13287 6.054 7.07887 6.54 6.89887 7.008C6.77287 7.35 6.55687 7.692 6.19687 7.836H3.65887V1.158H8.01487C9.56287 1.788 9.83287 4.29 9.83287 4.29H9.92287ZM21.7794 13.164H21.5814C21.5634 13.164 21.7794 14.604 20.5554 14.604C19.9074 14.604 20.0874 12.696 20.0874 12.138C20.0874 10.446 20.1414 9.33 20.1414 8.268C20.1414 6.432 19.1154 4.668 15.4434 4.668C14.5074 4.668 11.8434 4.758 11.8434 6.99C11.8434 7.782 12.3474 8.502 13.0494 8.502C13.6074 8.502 14.1654 7.944 14.1654 7.386C14.1654 7.044 13.9674 6.72 13.6794 6.504C13.2294 6.198 13.0314 5.946 13.0314 5.748C13.0314 5.226 14.3274 4.848 15.1734 4.848C17.3154 4.848 17.5854 5.73 17.6214 7.314C17.6214 7.89 17.6034 8.556 17.6034 9.312V9.42C17.6034 9.42 13.1934 9.312 11.7354 10.86C11.1594 11.346 11.0334 13.65 12.0054 14.424C13.7874 15.846 17.2254 15.108 17.6034 12.516C17.6034 14.244 17.6754 15.144 19.8174 15.144C21.0414 15.144 21.7794 14.55 21.7794 13.164ZM17.4234 12.372C16.5774 15.18 14.8134 14.748 14.7774 14.694C13.6794 14.28 14.1834 11.31 14.1834 11.202C14.1834 9.834 17.5674 9.618 17.5674 9.618C17.5674 10.986 17.4594 12.372 17.4234 12.372ZM23.2751 11.76H23.1851V15.018C23.6711 13.812 23.5811 14.028 24.6611 14.532C24.6611 14.532 28.3151 16.278 30.0431 13.038C30.1151 12.912 30.2771 12.57 30.2591 12.048C30.2771 10.356 28.7291 9.258 27.0371 8.79C25.4891 8.178 22.3751 6.612 25.0931 5.208C26.2271 4.524 28.6571 4.776 29.7191 7.206C29.8271 7.638 29.8811 8.034 29.8811 8.034H29.9711V4.776C29.4851 5.982 29.5751 5.766 28.4951 5.262C28.4951 5.262 24.8411 3.516 23.1131 6.756C23.0411 6.882 22.8791 7.224 22.8971 7.746C22.9511 9.51 24.3011 10.536 26.1011 11.022C27.5951 11.598 30.8171 13.146 28.0631 14.586C26.9291 15.27 24.4991 15.018 23.4371 12.588C23.3291 12.156 23.2751 11.76 23.2751 11.76ZM43.7013 15V14.748H42.6753V7.998C42.6573 6.198 41.0013 4.848 39.2373 4.848C37.7433 4.848 36.3213 5.802 35.7453 7.188V1.158H36.7173V0.905999H32.1453V1.158H33.4413V14.748H32.0553V15H36.8613V14.748H35.7453V7.782C36.1413 6.216 37.5993 5.046 39.1653 5.01C40.0833 5.01 40.3533 6.576 40.3533 6.576V14.748H39.1293V15H43.7013ZM47.8605 3.264C48.4545 3.264 49.0305 2.688 49.0305 2.076C49.0305 1.482 48.4545 0.905999 47.8605 0.905999C47.2485 0.905999 46.6725 1.482 46.6725 2.076C46.6725 2.688 47.2485 3.264 47.8605 3.264ZM50.1285 15V14.748H48.9945V5.046H50.1285V4.794H45.5025V5.046H46.6905V14.748H45.5025V15H50.1285ZM61.8001 9.924C61.8001 7.17 59.6401 4.794 56.7781 4.794C54.0241 4.794 51.7561 7.062 51.7561 9.924C51.7561 12.714 53.9881 15.036 56.7781 15.036C59.6041 15.036 61.8001 12.75 61.8001 9.924ZM56.7781 14.928C55.3381 14.928 54.6361 12.03 54.6361 9.924C54.6361 7.89 55.3201 4.902 56.7781 4.902C58.2001 4.902 58.9201 7.926 58.9201 9.924C58.9201 11.85 58.2361 14.928 56.7781 14.928ZM74.6646 15V14.748H73.6566V7.998C73.6566 6.198 72.1266 4.848 70.3446 4.848C68.8686 4.848 67.5006 5.802 66.9246 7.188V4.794H63.4146V5.046H64.6206V14.748H63.4146V15H67.9326V14.748H66.9246V7.782C67.3386 6.216 68.7246 5.064 70.2726 5.028C71.3166 5.118 71.3526 6.594 71.3526 6.594V14.748H70.0926V15H74.6646ZM17.0876 33.76H16.9976V37.018C17.4836 35.812 17.3936 36.028 18.4736 36.532C18.4736 36.532 22.1276 38.278 23.8556 35.038C23.9276 34.912 24.0896 34.57 24.0716 34.048C24.0896 32.356 22.5416 31.258 20.8496 30.79C19.3016 30.178 16.1876 28.612 18.9056 27.208C20.0396 26.524 22.4696 26.776 23.5316 29.206C23.6396 29.638 23.6936 30.034 23.6936 30.034H23.7836V26.776C23.2976 27.982 23.3876 27.766 22.3076 27.262C22.3076 27.262 18.6536 25.516 16.9256 28.756C16.8536 28.882 16.6916 29.224 16.7096 29.746C16.7636 31.51 18.1136 32.536 19.9136 33.022C21.4076 33.598 24.6296 35.146 21.8756 36.586C20.7416 37.27 18.3116 37.018 17.2496 34.588C17.1416 34.156 17.0876 33.76 17.0876 33.76ZM33.2478 34.48L33.0318 34.462C33.0318 34.462 32.9598 35.02 32.6538 35.596C32.2938 36.316 31.7358 36.712 31.0518 36.748C31.0518 36.748 30.1878 36.802 30.1878 35.29V27.406H33.1398V27.154H30.1518V23.59C30.1518 23.59 29.6838 25.606 27.8658 26.146V27.154H25.8678V27.406H27.8658V34.228C27.8658 34.228 27.2538 37.378 30.9438 37C32.9238 36.892 33.2478 34.498 33.2478 34.48ZM44.9076 31.924C44.9076 29.17 42.7476 26.794 39.8856 26.794C37.1316 26.794 34.8636 29.062 34.8636 31.924C34.8636 34.714 37.0956 37.036 39.8856 37.036C42.7116 37.036 44.9076 34.75 44.9076 31.924ZM39.8856 36.928C38.4456 36.928 37.7436 34.03 37.7436 31.924C37.7436 29.89 38.4276 26.902 39.8856 26.902C41.3076 26.902 42.0276 29.926 42.0276 31.924C42.0276 33.85 41.3436 36.928 39.8856 36.928ZM50.0501 29.26V26.794H46.5221V27.046H47.7461V36.748H46.5221V37H51.1121V36.748H50.0501V29.926L50.2301 29.332C50.5721 28.09 51.3821 27.478 51.4181 27.424C52.3721 26.704 53.2541 26.956 53.2541 26.956C53.5781 27.046 53.6321 27.37 53.6321 27.37C53.6321 28.108 52.5881 27.856 52.5881 28.846C52.5881 29.404 53.1641 29.98 53.7221 29.98C54.2801 29.98 54.8561 29.404 54.8561 28.846C54.8561 27.082 53.6861 26.866 53.6861 26.866C51.7781 26.398 50.6081 27.622 50.0501 29.26ZM66.0066 34.246H65.7726C64.9626 35.794 63.3606 36.838 61.5246 36.838L60.9846 36.802C59.9766 36.208 59.3286 34.336 59.3646 31.24H66.4746C66.1686 28.738 64.0626 26.812 61.5246 26.812C58.7346 26.812 56.4846 29.098 56.4846 31.924C56.4846 34.75 58.7346 37.036 61.5246 37.036C63.4686 37.036 65.1606 35.902 66.0066 34.246ZM63.6666 31.042H59.3826C59.5266 29.08 60.1566 27.532 60.9846 27.046C61.1466 27.028 61.3266 27.01 61.5246 27.01C61.7046 27.01 61.8846 27.028 62.0826 27.046C62.9106 27.532 63.5406 29.062 63.6666 31.042Z" fill="#4D4B4B"/>
</svg>
