<svg width="32" height="27" viewBox="0 0 32 27" fill="none" xmlns="http://www.w3.org/2000/svg">
<path d="M30.6667 2.00022C29.3899 2.90086 27.9762 3.5897 26.48 4.04022C25.677 3.11691 24.6098 2.46248 23.4227 2.16546C22.2357 1.86844 20.986 1.94315 19.8428 2.3795C18.6996 2.81584 17.7179 3.59276 17.0307 4.60518C16.3434 5.6176 15.9836 6.81667 16 8.04022V9.37356C13.6569 9.43431 11.335 8.91464 9.24136 7.86082C7.14767 6.807 5.3471 5.25174 4.00001 3.33356C4.00001 3.33356 -1.33332 15.3336 10.6667 20.6669C7.92071 22.5308 4.64955 23.4655 1.33334 23.3336C13.3333 30.0002 28 23.3336 28 8.00022C27.9988 7.62883 27.9631 7.25835 27.8933 6.89356C29.2541 5.55155 30.2144 3.85717 30.6667 2.00022V2.00022Z" stroke="#4F4F4F" stroke-width="2" stroke-linecap="round" stroke-linejoin="round"/>
</svg>
