<svg width="32" height="32" viewBox="0 0 32 32" fill="none" xmlns="http://www.w3.org/2000/svg">
<path d="M30.0533 8.56016C29.895 7.92738 29.5724 7.34759 29.1182 6.87937C28.664 6.41115 28.0943 6.07108 27.4667 5.8935C25.1733 5.3335 16 5.3335 16 5.3335C16 5.3335 6.82668 5.3335 4.53334 5.94683C3.90567 6.12441 3.33598 6.46448 2.8818 6.9327C2.42763 7.40093 2.10506 7.98071 1.94668 8.6135C1.52696 10.9409 1.32166 13.3019 1.33334 15.6668C1.31838 18.0496 1.5237 20.4286 1.94668 22.7735C2.12129 23.3866 2.45108 23.9444 2.9042 24.3928C3.35732 24.8412 3.91844 25.1652 4.53334 25.3335C6.82668 25.9468 16 25.9468 16 25.9468C16 25.9468 25.1733 25.9468 27.4667 25.3335C28.0943 25.1559 28.664 24.8158 29.1182 24.3476C29.5724 23.8794 29.895 23.2996 30.0533 22.6668C30.4698 20.3569 30.6751 18.0139 30.6667 15.6668C30.6816 13.2841 30.4763 10.9051 30.0533 8.56016V8.56016Z" stroke="#4F4F4F" stroke-width="2" stroke-linecap="round" stroke-linejoin="round"/>
<path d="M13 20.0266L20.6667 15.6666L13 11.3066V20.0266Z" stroke="#4F4F4F" stroke-width="2" stroke-linecap="round" stroke-linejoin="round"/>
</svg>
